# xmcd CD database file
#
# Track frame offsets:
#	150
#	16280
#	40753
#	64639
#	86280
#	109668
#	129640
#	146779
#	169989
#	194000
#
# Disc length: 2867 seconds
#
# Revision: 0
# Processed by: cddbd v1.5.1PL0 Copyright (c) Steve Scherf et al.
# Submitted via: CDex 1.51
#
DISCID=880b310a
DTITLE=飯塚　雅弓 - ∞Infinity∞ [CD1]
DYEAR=2004
DGENRE=Pop
TTITLE0=I'm In The Pink
TTITLE1=∞Infinity∞
TTITLE2=愛しい時間
TTITLE3=Strawberry Fantasy
TTITLE4=Moonless
TTITLE5=Power To Power
TTITLE6=カレー日和
TTITLE7=０％
TTITLE8=願い
TTITLE9=2004年のDiary
EXTD=YEAR: 2004
EXTT0=
EXTT1=
EXTT2=
EXTT3=
EXTT4=
EXTT5=
EXTT6=
EXTT7=
EXTT8=
EXTT9=
PLAYORDER=
